<svg id="account" xmlns="http://www.w3.org/2000/svg" width="70.098" height="79.831" viewBox="0 0 70.098 79.831">
  <path id="Trazado_221" data-name="Trazado 221" d="M283.93,333.9c1.01-15.854,8.663-26.751,23.226-32.936-8.863-5.407-13.473-13.258-12.9-23.7a23.757,23.757,0,0,1,9.272-17.7,24.77,24.77,0,0,1,34.716,3.614,23.826,23.826,0,0,1,5.223,20.633c-1.5,7.628-5.863,13.258-12.654,17.211.908.38,1.694.685,2.459,1.028a34.507,34.507,0,0,1,17.458,17.06,35.515,35.515,0,0,1,3.225,11.639,16.289,16.289,0,0,1,.027,2.63c0,.182-.34.5-.532.5-1.179.047-2.361.018-3.542.025-.759,0-.679-.57-.683-1.028a26.672,26.672,0,0,0-1.756-9.2,30.247,30.247,0,0,0-9.953-13.585,28.692,28.692,0,0,0-14.915-6.075,30.05,30.05,0,0,0-30.233,15.838,28.243,28.243,0,0,0-3.423,12.1c-.087,1.954-.067,1.954-2,1.954Zm35.115-34.924c9.4.619,20.093-7.5,20.146-20.006a20.119,20.119,0,0,0-40.237-.029v.093C298.988,291.393,309.635,299.574,319.045,298.972Z" transform="translate(-283.93 -254.068)"/>
</svg>
