<?xml version="1.0" encoding="utf-8"?>
<!-- Generator: Adobe Illustrator 25.0.1, SVG Export Plug-In . SVG Version: 6.00 Build 0)  -->
<svg version="1.1" id="Capa_1" xmlns="http://www.w3.org/2000/svg" xmlns:xlink="http://www.w3.org/1999/xlink" x="0px" y="0px"
	 viewBox="0 0 1080 1080" style="enable-background:new 0 0 1080 1080;" xml:space="preserve">
<style type="text/css">
	.st0{fill:#08ba89;}
	.st1{opacity:0.66;fill:#08ba89;enable-background:new    ;}
</style>
<path class="st0" d="M298.7,441.4l339.8,339.8l0,0L566.7,853c-14.8,14.8-38.9,14.8-53.7,0l0,0L226.9,567
	c-14.8-14.8-14.8-38.9,0-53.7l0,0L298.7,441.4L298.7,441.4z"/>
<path class="st1" d="M853.1,566.9L566.9,853.2c-14.8,14.8-38.9,14.8-53.7,0l0,0l-71.8-71.8l0,0l340-340l0,0l71.8,71.8
	C868,528,868,552.1,853.1,566.9L853.1,566.9z"/>
<path class="st0" d="M370.1,370L514,226.1c14.4-14.4,37.6-14.4,52,0l0,0L709.9,370l0,0L540,539.9l0,0L370.1,370L370.1,370z"/>
<image style="overflow:visible;" width="362" height="195" xlink:href="C87E24A1.jpg"  transform="matrix(1 0 0 1 -550.1177 117.8)">
</image>
</svg>
