<svg xmlns="http://www.w3.org/2000/svg" viewBox="0 0 1080 1080"><defs><style>.cls-1{fill:#3a3a3a;}</style></defs><g id="Capa_6" data-name="Capa 6"><path class="cls-1" d="M211.09,79.4c0-11.26-.65-21.6.22-31.82.6-7.16,2.15-14.69,5.26-21.1,6.59-13.59,22-19.89,36.74-16.42,15.79,3.71,26.33,15.35,26.5,31,.39,35.83.55,71.67.12,107.49-.25,20.73-12.8,33.88-31.47,34.8-19.9,1-33.86-10.66-36.6-31.26-.7-5.28-3.1-6.26-7.54-6.24-30.56.13-61.12,0-91.68.27-27.16.26-41,14.37-41.21,41.6-.15,20-.05,40,0,60,0,2.24.25,4.48.43,7.63h772c.74-1,1.25-1.31,1.26-1.66,0-24.12.72-48.27-.22-72.35-.8-20.76-13.26-33.13-34-34.62-14.63-1.06-29.38-.5-44.09-.65-2.69,0-5.38,0-8.46,0V79.24c28,1.19,56-2.58,83.09,5.48,43.46,12.92,73.15,52.94,73.26,99.34.22,94,0,188-.05,282V527.8c-11.43-3.35-22.26-6.94-33.31-9.64-10-2.44-20.21-4.22-30.42-5.68-4.36-.62-5.72-2.05-5.71-6.43q.28-86.51.27-173V311.65H71.82c-.17,3.17-.41,5.6-.41,8q0,244.71,0,489.42a79.05,79.05,0,0,0,.78,11c2.61,18.58,14.69,30.11,33.44,31.72,5.94.5,11.93.38,17.9.38q192,0,383.93-.14c6.44,0,8.74,1.6,10.2,8.14,4.53,20.3,10.14,40.36,15.47,61.06-1.37.08-3.76.34-6.15.34q-135.44-.09-270.88-.21c-48.25,0-96.5.27-144.75.14-29.08-.08-55.13-8.69-76.58-29.07-20.91-19.87-31.9-44.72-32.12-73.1C2,730.65,2.36,642,2.32,553.26q0-59.28,0-118.55c0-83.17-.42-166.36.3-249.53C3,143.3,21.47,111,59.18,91.1c15.06-7.94,31.51-11.37,48.53-11.48,31.25-.18,62.5-.16,93.74-.22C204.37,79.39,207.29,79.4,211.09,79.4Z"/><path class="cls-1" d="M964.41,603.68c-13.49,9.82-26.37,19.4-39.56,28.53-1.52,1-5.22.38-7.13-.78-34-20.73-70.93-30.82-110.71-30.78-94.41.09-179.19,66.5-202.33,158.19-30.48,120.71,49.36,237.62,166.76,259,114,20.82,226.5-58.45,244.51-173.22a206.2,206.2,0,0,0-1.31-74c-.85-4.18-.34-7.2,2.72-10.5,11.35-12.21,22.32-24.77,33.78-37.58,36.61,83.9,19.93,225.95-99.64,305.16-112.57,74.58-263.92,50.06-346.77-55.51-85.28-108.67-72.88-261,29.93-354.43C733.51,528,875.72,534,964.41,603.68Z"/><path class="cls-1" d="M801.88,899.46c-17-.65-30.53-8.18-40.24-21.9-26.72-37.73-50.87-77-68.65-119.84a124,124,0,0,1-7.75-25.62c-3.12-17.59,9.37-27.07,26-20.82,22.48,8.43,39.77,24.4,57.93,39.12,10.7,8.66,21.35,17.42,31.63,26.58,4.16,3.72,6.86,3.36,11,.06,43.3-34.44,86.4-69.16,130.3-102.83,33.86-26,68-51.85,106.43-70.92,5.45-2.7,12.28-3.76,18.42-3.61,8.54.2,12.78,6.13,9.94,14.19-2.93,8.31-6.62,16.89-12.06,23.7-17.06,21.31-34.93,42-52.77,62.65-53,61.41-108.7,120.26-165.8,177.83C831,893.51,817.94,899.9,801.88,899.46Z"/><path class="cls-1" d="M636.82,79.76c0-12.63-.17-23.64,0-34.65.41-21.45,14.41-36,34.29-36,19.17.06,34.06,15.06,34.28,35.72.38,35.13.46,70.28,0,105.41-.22,16.72-10.9,28.77-26.75,32.52-14.8,3.51-30.74-3.22-37.93-17.07-2.85-5.5-3.55-12.11-5.57-19.44H338.07V79.76Z"/><path class="cls-1" d="M226.53,438.9c17.68,0,35.36-.06,53,0,15.76,0,25.5,9.54,25.53,25.19q0,35.46-.38,70.92c-.18,14.18-9.68,23.69-23.87,23.79-24.57.18-49.13,0-73.7,0-11.47,0-22.94.13-34.41,0-15.31-.13-25.07-9.71-25.17-25q-.23-35.13,0-70.26c.09-15,9.61-24.56,24.57-24.7C190.27,438.78,208.4,438.91,226.53,438.9Z"/><path class="cls-1" d="M226.06,766.92H173.7c-16.45,0-26.07-9.48-26.15-26.09q-.15-34.11,0-68.21c.07-16,9.95-25.82,25.81-25.82,34.22,0,68.45.53,102.66-.17,19.13-.39,31,10.21,29.14,33.68a409.16,409.16,0,0,0-.09,57.64c1,16.14-8.27,28.7-24.59,28.87-18.14.2-36.28,0-54.43,0Z"/><path class="cls-1" d="M458.56,438.89c17.68,0,35.36-.06,53,0,16.25.08,25.55,9.48,25.59,25.8q.09,34.1,0,68.19c0,16.31-9.36,25.89-25.52,25.93q-54.06.17-108.11,0c-13.5,0-23.56-9.86-23.7-23.44q-.37-36.15,0-72.32c.12-14.6,9.55-23.94,24.33-24.13C422.3,438.7,440.43,438.88,458.56,438.89Z"/><path class="cls-1" d="M459.44,646.83c17.45,0,34.91-.06,52.36,0,15.53.08,25,9.8,25.48,25.42.33,10-1.73,19.23-4.8,28.81-6.27,19.6-11,39.72-15.86,59.75-1.07,4.42-2.35,6.14-7,6.12-35.13-.16-70.26,0-105.39-.14-14.65-.07-24.27-9.61-24.39-24.13q-.3-35.83,0-71.66c.11-14.4,10-24.07,24.49-24.18,18.37-.15,36.74,0,55.12,0Z"/><path class="cls-1" d="M769.18,511.82c-21.75,6.05-42.94,10.46-63,17.94-18.78,7-36.47,17.06-54.41,26.2-9.22,4.7-18.32,4.11-27,.07s-13-11.89-13-21.78c0-23.64-.07-47.28,0-70.92.07-14.65,10.1-24.46,24.86-24.47q54,0,108.09.07c14.25,0,24.09,9.41,24.3,23.45C769.36,479.3,769.18,496.24,769.18,511.82Z"/></g></svg>