<svg xmlns="http://www.w3.org/2000/svg" viewBox="0 0 1080 1080"><defs><style>.cls-1{fill:#3a3a3a;}</style></defs><g id="Capa_5" data-name="Capa 5"><path class="cls-1" d="M959.33,257.83c29.8,0,57.48-.06,85.17,0,24.49.06,35.37,10.8,35.38,35.46q.09,289.87-.1,579.76c-.15,77.27-58.9,135-135.9,135q-404.18.06-808.37,0C56.2,1008.11-1.92,950.1-2,870.51q-.19-362.5,0-725c0-27.85,10.37-38.13,38.28-38.13q442.5,0,885,0c28.29,0,38.06,9.79,38.07,38ZM58.5,166.24c-.39,4.85-.84,7.88-.84,10.91,0,232.49-.29,465,.58,697.46.06,14.83,6.16,31.38,14.24,44.07,15.53,24.39,41,30.82,69,30.8q397.68-.35,795.36-.14c3.08,0,6.17.08,9.25-.07,44.69-2.08,74.26-32.92,74.27-77.61q0-270.13,0-540.27c0-4.65-.4-9.3-.62-14.14H960c-.24,5-.62,9.3-.62,13.59q-.06,250.32-.05,500.62c0,10.13.52,20.3-.29,30.37-1.22,15.3-14.22,26.13-29.79,25.84-15.14-.29-26.7-10.78-28.2-25.95-.51-5.24-.38-10.56-.38-15.84q0-332.22.24-664.44c0-12.13-3.28-15.47-15.43-15.45q-406.26.49-812.53.25Z"/><path class="cls-1" d="M478.26,497.17q-160.42,0-320.86,0c-29.27,0-38.62-9.39-38.63-38.68q0-97,0-194.07c0-26.43,10.34-37,36.58-37q322.84-.08,645.69,0c28,0,38.17,10.23,38.19,38.23q.07,97,0,194.07c0,27.36-10.17,37.43-37.47,37.44Q640,497.19,478.26,497.17Zm-300-209.77V437.1h601V287.4Z"/><path class="cls-1" d="M283.22,737.79c-42.72,0-85.43.1-128.15,0-25.77-.07-36.23-10.47-36.28-35.86q-.12-54.82,0-109.64c.08-22.81,10.35-33.6,32.81-33.64q132.11-.25,264.22,0c21.29.05,32.38,11.25,32.56,32.86q.5,56.76,0,113.54c-.19,21.08-11.85,32.54-33,32.66C371.29,738,327.25,737.78,283.22,737.79ZM388.46,618H178.38v59.41H388.46Z"/><path class="cls-1" d="M478.37,857.75q-163.1,0-326.2,0c-20,0-32.57-10.74-33.32-27.86-.7-16,10.51-29,26.45-30.57,4.37-.42,8.8-.3,13.2-.3H799c26.33,0,40.07,10.06,40.1,29.27,0,19.43-13.49,29.49-39.84,29.49Q638.84,857.77,478.37,857.75Z"/><path class="cls-1" d="M673.94,737.79c-43.59,0-87.18.1-130.77-.07-18.38-.07-30.58-9.29-33-24.11-3.25-20.14,10.17-35.1,32.46-35.25,40.5-.27,81-.08,121.52-.08,47.11,0,94.23-.16,141.34.08,22.42.11,36.27,15.1,32.93,34.74-2.64,15.59-14.07,24.58-32.42,24.65C762,737.92,718,737.81,673.94,737.79Z"/><path class="cls-1" d="M674.09,617.2q-65.37,0-130.75,0c-20.67,0-33.25-10.94-33.5-28.86-.24-18.18,12-29.68,32.67-29.71q131.41-.2,262.83,0c20.78,0,33.57,11.27,33.79,28.9.23,18.11-13,29.66-34.28,29.69Q739.46,617.29,674.09,617.2Z"/></g></svg>