<svg id="Capa_3" data-name="Capa 3" xmlns="http://www.w3.org/2000/svg" viewBox="0 0 946.84 946.91"><defs><style>.cls-1{fill:#000;}</style></defs><path class="cls-1" d="M946.84,473.46C947.18,735,734.7,947.05,473.21,946.91,211.92,946.77,0,734.75,0,473.45S212.22-.14,473.72,0C735,.14,947.19,212.16,946.84,473.46ZM473.49,40.74C235.2,40.73,41,234.31,40.71,471.87c-.28,240.25,192.79,433.64,431.52,434.2,239.7.55,433.82-193,433.95-431.75C906.26,234.65,712.76,40.74,473.49,40.74Z"/><path class="cls-1" d="M283.93,693.6c5.56-87.29,47.7-147.29,127.88-181.34-48.8-29.77-74.18-73-71-130.51,2.17-39.64,20-72.44,51.05-97.48C450,237.39,534.48,245.89,583,304.17c27.4,32.94,37,71.36,28.76,113.6-8.24,42-32.28,73-69.67,94.76,5,2.09,9.33,3.77,13.54,5.66,43.56,19.51,75.45,51,96.12,93.93,9.77,20.29,15.31,41.77,17.76,64.08a89.75,89.75,0,0,1,.15,14.48c0,1-1.87,2.73-2.93,2.78-6.49.26-13,.1-19.5.14-4.18,0-3.74-3.14-3.76-5.66a146.84,146.84,0,0,0-9.67-50.67,166.53,166.53,0,0,0-54.8-74.8c-24.23-18.89-51.75-30.34-82.12-33.45-34.63-3.55-68.07,1.76-99,18.84a165.62,165.62,0,0,0-67.46,68.36c-11.06,20.79-17.79,42.95-18.85,66.62-.48,10.76-.37,10.76-11,10.76ZM477.27,501.31C529,504.72,587.9,460,588.19,391.16c.25-60.84-49.78-110.54-110.71-110.55A110.6,110.6,0,0,0,366.65,391v.49C366.84,459.58,425.46,504.62,477.27,501.31Z"/></svg>