<svg xmlns="http://www.w3.org/2000/svg" width="79.663" height="79.663" viewBox="0 0 79.663 79.663">
  <g id="logo-instagram" transform="translate(-32 -32)">
    <path id="Trazado_229" data-name="Trazado 229" d="M88.427,38.638a16.647,16.647,0,0,1,16.6,16.6V88.427a16.647,16.647,0,0,1-16.6,16.6H55.236a16.647,16.647,0,0,1-16.6-16.6V55.236a16.647,16.647,0,0,1,16.6-16.6H88.427m0-6.638H55.236A23.3,23.3,0,0,0,32,55.236V88.427a23.3,23.3,0,0,0,23.236,23.236H88.427a23.3,23.3,0,0,0,23.236-23.236V55.236A23.3,23.3,0,0,0,88.427,32Z"/>
    <path id="Trazado_230" data-name="Trazado 230" d="M185.49,116.628a4.968,4.968,0,1,1,3.524-1.455,4.979,4.979,0,0,1-3.524,1.455Zm-21.575,3.318a13.278,13.278,0,1,1-13.278,13.278,13.278,13.278,0,0,1,13.278-13.278m0-6.638a19.916,19.916,0,1,0,19.916,19.916A19.916,19.916,0,0,0,163.916,113.308Z" transform="translate(-92.084 -61.392)"/>
  </g>
</svg>
