<?xml version="1.0" encoding="utf-8"?>
<!-- Generator: Adobe Illustrator 25.0.1, SVG Export Plug-In . SVG Version: 6.00 Build 0)  -->
<svg version="1.1" id="Capa_1" xmlns="http://www.w3.org/2000/svg" xmlns:xlink="http://www.w3.org/1999/xlink" x="0px" y="0px"
	 viewBox="0 0 185.3 25.5" style="enable-background:new 0 0 185.3 25.5;" xml:space="preserve">
<style type="text/css">
	.st0{enable-background:new    ;}
	.st1{fill:#737373;}
	.st2{fill:#08BA89;}
	.st3{opacity:0.81;fill:#08BA89;enable-background:new    ;}
</style>
<g class="st0">
	<path class="st1" d="M32.1,11.8c0-3.6,2.8-6.2,6.5-6.2c2,0,3.7,0.7,4.8,2L41.9,9c-0.9-0.9-2-1.4-3.2-1.4c-2.5,0-4.3,1.8-4.3,4.2
		c0,2.5,1.8,4.2,4.3,4.2c1.3,0,2.3-0.5,3.2-1.4l1.4,1.4c-1.1,1.3-2.8,2-4.8,2C34.8,18,32.1,15.4,32.1,11.8z"/>
	<path class="st1" d="M52.9,12.4v5.4h-2v-1.1c-0.5,0.8-1.5,1.2-2.9,1.2c-2.1,0-3.4-1.2-3.4-2.8c0-1.5,1-2.7,3.8-2.7h2.4v-0.1
		c0-1.3-0.8-2-2.3-2c-1,0-2.1,0.3-2.8,0.9l-0.8-1.6c1-0.8,2.4-1.1,3.9-1.1C51.3,8.5,52.9,9.8,52.9,12.4z M50.7,14.9v-1.1h-2.2
		c-1.5,0-1.9,0.6-1.9,1.2c0,0.8,0.7,1.3,1.8,1.3C49.4,16.4,50.3,15.9,50.7,14.9z"/>
	<path class="st1" d="M60.9,8.5v2.1c-0.2,0-0.3-0.1-0.5-0.1c-1.6,0-2.7,1-2.7,2.8v4.5h-2.2V8.6h2.1V10C58.3,9,59.4,8.5,60.9,8.5z"/>
	<path class="st1" d="M72.5,13.2c0,2.9-2,4.7-4.7,4.7c-1.3,0-2.3-0.4-3-1.3v1.2h-2.1V5h2.2v4.7c0.7-0.8,1.8-1.2,2.9-1.2
		C70.5,8.5,72.5,10.4,72.5,13.2z M70.3,13.2c0-1.8-1.2-2.9-2.7-2.9c-1.6,0-2.7,1.1-2.7,2.9s1.2,2.9,2.7,2.9
		C69.2,16.1,70.3,15,70.3,13.2z"/>
	<path class="st1" d="M73.8,13.2c0-2.8,2.1-4.7,4.9-4.7c2.9,0,4.9,1.9,4.9,4.7s-2.1,4.7-4.9,4.7S73.8,16,73.8,13.2z M81.5,13.2
		c0-1.8-1.2-2.9-2.7-2.9c-1.6,0-2.7,1.1-2.7,2.9s1.2,2.9,2.7,2.9C80.3,16.1,81.5,15,81.5,13.2z"/>
	<path class="st1" d="M94.7,12.5v5.3h-2.2v-5c0-1.6-0.8-2.4-2.2-2.4c-1.5,0-2.6,0.9-2.6,2.8v4.7h-2.2V8.6h2v1.2
		c0.7-0.8,1.8-1.3,3.2-1.3C93.1,8.5,94.7,9.8,94.7,12.5z"/>
	<path class="st1" d="M106.2,13.9H99c0.3,1.3,1.4,2.2,3,2.2c1,0,1.8-0.3,2.5-1l1.2,1.3c-0.8,1-2.1,1.5-3.7,1.5c-3.1,0-5.1-2-5.1-4.7
		s2-4.7,4.8-4.7c2.7,0,4.7,1.9,4.7,4.8C106.2,13.4,106.2,13.7,106.2,13.9z M98.9,12.5h5.2c-0.2-1.3-1.2-2.2-2.6-2.2
		C100.2,10.2,99.2,11.1,98.9,12.5z"/>
	<path class="st1" d="M112.2,16.5l0.8-1.7c1,0.8,2.5,1.3,4,1.3c1.9,0,2.7-0.7,2.7-1.6c0-2.6-7.2-0.9-7.2-5.4c0-1.9,1.6-3.6,4.9-3.6
		c1.4,0,3,0.4,4,1.1l-0.7,1.7c-1.1-0.6-2.3-0.9-3.3-0.9c-1.9,0-2.6,0.7-2.6,1.6c0,2.6,7.1,0.9,7.1,5.3c0,1.9-1.6,3.6-4.9,3.6
		C115.1,18,113.2,17.4,112.2,16.5z"/>
	<path class="st1" d="M132.3,8.6l-4.3,9.9c-0.8,2.1-2,2.7-3.5,2.7c-0.9,0-1.9-0.3-2.5-0.8l0.9-1.6c0.4,0.4,1,0.6,1.6,0.6
		c0.8,0,1.2-0.4,1.6-1.3l0.2-0.4l-4-9.2h2.2l2.9,6.8l2.9-6.8L132.3,8.6L132.3,8.6z"/>
	<path class="st1" d="M132.5,16.9l0.8-1.6c0.8,0.5,2,0.9,3.2,0.9c1.4,0,1.9-0.4,1.9-1c0-1.8-5.7-0.1-5.7-3.8c0-1.7,1.6-2.9,4-2.9
		c1.2,0,2.6,0.3,3.4,0.8l-0.8,1.6c-0.9-0.5-1.8-0.7-2.6-0.7c-1.3,0-1.9,0.4-1.9,1c0,1.9,5.7,0.2,5.7,3.8c0,1.7-1.6,2.8-4.2,2.8
		C134.8,17.9,133.3,17.5,132.5,16.9z"/>
	<path class="st1" d="M147.9,17.3c-0.5,0.4-1.3,0.6-2.1,0.6c-2,0-3.2-1.1-3.2-3.1v-4.4h-1.5V8.7h1.5V6.6h2.2v2.1h2.5v1.7h-2.5v4.4
		c0,0.9,0.4,1.4,1.3,1.4c0.4,0,0.9-0.1,1.2-0.4L147.9,17.3z"/>
	<path class="st1" d="M158,13.9h-7.2c0.3,1.3,1.4,2.2,3,2.2c1,0,1.8-0.3,2.5-1l1.2,1.3c-0.8,1-2.1,1.5-3.7,1.5c-3.1,0-5.1-2-5.1-4.7
		s2-4.7,4.8-4.7c2.7,0,4.7,1.9,4.7,4.8C158,13.4,158,13.7,158,13.9z M150.8,12.5h5.2c-0.2-1.3-1.2-2.2-2.6-2.2
		C152,10.2,151,11.1,150.8,12.5z"/>
	<path class="st1" d="M175.5,12.5v5.3h-2.2v-5c0-1.6-0.8-2.4-2.1-2.4c-1.4,0-2.4,0.9-2.4,2.8v4.7h-2.2v-5c0-1.6-0.8-2.4-2.1-2.4
		c-1.4,0-2.4,0.9-2.4,2.8V18h-2.2V8.6h2v1.2c0.7-0.8,1.8-1.3,3-1.3c1.3,0,2.5,0.5,3.1,1.5c0.7-0.9,2-1.5,3.4-1.5
		C173.9,8.5,175.5,9.8,175.5,12.5z"/>
	<path class="st1" d="M177.2,16.9l0.8-1.6c0.8,0.5,2,0.9,3.2,0.9c1.4,0,1.9-0.4,1.9-1c0-1.8-5.7-0.1-5.7-3.8c0-1.7,1.6-2.9,4-2.9
		c1.2,0,2.6,0.3,3.4,0.8l-0.8,1.6c-0.9-0.5-1.8-0.7-2.6-0.7c-1.3,0-1.9,0.4-1.9,1c0,1.9,5.7,0.2,5.7,3.8c0,1.7-1.6,2.8-4.2,2.8
		C179.6,17.9,178,17.5,177.2,16.9z"/>
</g>
<path class="st2" d="M3.8,9.4l11.8,11.8l0,0l-2.5,2.5c-0.5,0.5-1.3,0.5-1.9,0l0,0l-9.9-9.9c-0.5-0.5-0.5-1.3,0-1.8l0,0l0,0L3.8,9.4z
	"/>
<path class="st3" d="M23.1,13.7l-9.9,9.9c-0.5,0.5-1.4,0.5-1.9,0l0,0l0,0l-2.5-2.5l0,0L20.6,9.4l0,0l2.5,2.5
	C23.6,12.4,23.6,13.2,23.1,13.7L23.1,13.7L23.1,13.7z"/>
<path class="st2" d="M6.3,6.9l5-5c0.5-0.5,1.3-0.5,1.8,0l0,0l5,5l0,0l-5.9,5.9l0,0L6.3,6.9z"/>
</svg>
