<?xml version="1.0" encoding="utf-8"?>
<!-- Generator: Adobe Illustrator 25.0.1, SVG Export Plug-In . SVG Version: 6.00 Build 0)  -->
<svg version="1.1" id="Capa_1" xmlns="http://www.w3.org/2000/svg" xmlns:xlink="http://www.w3.org/1999/xlink" x="0px" y="0px"
	 viewBox="0 0 6102 2151" style="enable-background:new 0 0 6102 2151;" xml:space="preserve">
<style type="text/css">
	.st0{fill:#757575;}
	.st1{fill:#FF5B00;}
	.st2{enable-background:new    ;}
</style>
<g id="Rotulo">
	<polygon class="st0" points="1842.8,1201.6 1782.1,1293.7 1900,1327.5 	"/>
	<polygon class="st1" points="1842.8,1201.6 1511.2,1201.6 1677,1454.4 	"/>
	<polygon class="st0" points="1482.2,1155.8 1677,1454.4 1144.6,1567.9 	"/>
	<path class="st1" d="M873.6,1453.4c0,0-114.5,188.9-108.7,188.9s326.2-74.4,326.2-74.4l61.6-75.2L873.6,1453.4z"/>
	<polygon class="st1" points="852.7,1035.6 1183.9,1454.4 1453.6,1127.2 	"/>
	<polygon class="st0" points="689,509.1 992.3,1018.5 1433,1092.8 	"/>
	<g class="st2">
		<path class="st0" d="M2811.7,1356.1v80.4h-387.3V920h377v80.4h-281.1v134.3h249.4v78.9h-249.4v142.4H2811.7z"/>
		<path class="st0" d="M2875.2,1381.9l33.2-74.5c41.3,33.2,107,56.8,170.4,56.8c80.4,0,114.4-28.8,114.4-67.1
			c0-111.4-306.9-38.4-306.9-230.2c0-83.4,66.4-154.2,208.1-154.2c62,0,126.9,16.2,171.9,45.7l-30.2,74.5
			c-46.5-27.3-97.4-40.6-142.4-40.6c-79.7,0-112.1,31-112.1,70.1c0,109.9,306.2,38.4,306.2,228c0,82.6-67.1,153.5-208.8,153.5
			C2998.4,1443.9,2917.9,1418.8,2875.2,1381.9z"/>
		<path class="st0" d="M3339.2,1381.9l33.2-74.5c41.3,33.2,107,56.8,170.4,56.8c80.4,0,114.4-28.8,114.4-67.1
			c0-111.4-306.9-38.4-306.9-230.2c0-83.4,66.4-154.2,208.1-154.2c62,0,126.9,16.2,171.9,45.7l-30.2,74.5
			c-46.5-27.3-97.4-40.6-142.4-40.6c-79.7,0-112.1,31-112.1,70.1c0,109.9,306.2,38.4,306.2,228c0,82.6-67.1,153.5-208.8,153.5
			C3462.4,1443.9,3382,1418.8,3339.2,1381.9z"/>
	</g>
	<g class="st2">
		<path class="st1" d="M4509.4,920v516.5h-78.9l-284.8-349.7v349.7h-95.2V920h78.9l284.8,349.7V920H4509.4z"/>
	</g>
	<g class="st2">
		<path class="st0" d="M5023.6,1276.4c0,102.6-83.4,167.5-188.9,167.5c-140.9,0-223.6-90.8-223.6-256.8
			c0-177.1,103.3-274.5,253.1-274.5c51.6,0,101.1,11.1,135.8,33.2l-35.4,72.3c-28-18.4-62-25.1-98.1-25.1
			c-97.4,0-158.6,60.5-158.6,177.8v0.7c31-36.2,80.4-53.9,138-53.9C4947.6,1117.7,5023.6,1179.7,5023.6,1276.4z M4930.7,1280.8
			c0-53.9-40.6-87.8-103.3-87.8c-62,0-104.8,37.6-104.8,88.5c0,48.7,38.4,87.1,107,87.1C4889.4,1368.6,4930.7,1334.7,4930.7,1280.8z
			"/>
		<path class="st0" d="M5449.4,1277.9c0,90.8-65.7,166-204.4,166c-73,0-146.8-22.1-194-59.8l40.6-74.5c37.6,31,93.7,50.9,152,50.9
			c68.6,0,109.2-30.2,109.2-78.9c0-49.4-31.7-80.4-138.7-80.4h-124.7l26.6-281.1h303.2v80.4H5197L5186,1120h49.4
			C5388.1,1120,5449.4,1186.4,5449.4,1277.9z"/>
	</g>
</g>
</svg>
