<svg xmlns="http://www.w3.org/2000/svg" viewBox="0 0 6102 2151"><defs><style>.cls-1{fill:#3a3a3a;}.cls-2{fill:#ff5b00;}</style></defs><g id="Rotulo"><polygon class="cls-1" points="1824.59 1201.41 1763.93 1293.55 1881.82 1327.32 1824.59 1201.41"/><polygon class="cls-2" points="1824.59 1201.41 1492.99 1201.41 1658.79 1454.23 1824.59 1201.41"/><polygon class="cls-1" points="1464.04 1155.62 1658.79 1454.23 1126.38 1567.68 1464.04 1155.62"/><path class="cls-2" d="M855.42,1453.22S741,1642.08,746.68,1642.08s326.21-74.4,326.21-74.4l61.65-75.22Z"/><polygon class="cls-2" points="834.5 1035.44 1165.77 1454.23 1435.42 1127.01 834.5 1035.44"/><polygon class="cls-1" points="670.82 508.92 974.14 1018.27 1414.82 1092.67 670.82 508.92"/><path class="cls-1" d="M2793.53,1210.88v80.43H2406.18V774.84h377v80.42H2502.1V989.54h249.38v79H2502.1v142.39Z"/><path class="cls-1" d="M2857,1236.71l33.2-74.52c41.32,33.2,107,56.81,170.43,56.81,80.43,0,114.37-28.77,114.37-67.14,0-111.41-306.93-38.37-306.93-230.2,0-83.37,66.4-154.2,208.06-154.2,62,0,126.9,16.23,171.91,45.75l-30.25,74.51c-46.48-27.29-97.39-40.57-142.4-40.57-79.68,0-112.15,31-112.15,70.09,0,109.93,306.19,38.36,306.19,228,0,82.63-67.14,153.46-208.8,153.46C2980.19,1298.68,2899.77,1273.6,2857,1236.71Z"/><path class="cls-1" d="M3321.06,1236.71l33.2-74.52c41.32,33.2,107,56.81,170.43,56.81,80.43,0,114.37-28.77,114.37-67.14,0-111.41-306.93-38.37-306.93-230.2,0-83.37,66.4-154.2,208.06-154.2,62,0,126.9,16.23,171.91,45.75l-30.25,74.51c-46.48-27.29-97.39-40.57-142.4-40.57-79.68,0-112.15,31-112.15,70.09,0,109.93,306.19,38.36,306.19,228,0,82.63-67.14,153.46-208.8,153.46C3444.27,1298.68,3363.85,1273.6,3321.06,1236.71Z"/><path class="cls-2" d="M4491.21,774.84v516.47h-78.94l-284.8-349.73v349.73H4032.3V774.84h78.94L4396,1124.56V774.84Z"/><path class="cls-1" d="M5005.46,1131.2c0,102.56-83.37,167.48-188.88,167.48-140.92,0-223.55-90.75-223.55-256.75,0-177.08,103.29-274.47,253.07-274.47,51.64,0,101.08,11.07,135.75,33.2L4946.44,873c-28-18.45-62-25.09-98.13-25.09-97.39,0-158.63,60.5-158.63,177.82v.73c31-36.15,80.42-53.86,138-53.86C4929.47,972.57,5005.46,1034.55,5005.46,1131.2Zm-93,4.43c0-53.86-40.58-87.8-103.29-87.8-62,0-104.77,37.63-104.77,88.54,0,48.69,38.36,87.06,107,87.06C4871.18,1223.43,4912.5,1189.49,4912.5,1135.63Z"/><path class="cls-1" d="M5431.18,1132.68c0,90.75-65.67,166-204.37,166-73.05,0-146.83-22.13-194.05-59.76l40.58-74.52c37.63,31,93.7,50.91,152,50.91,68.62,0,109.2-30.25,109.2-78.94,0-49.44-31.73-80.42-138.71-80.42H5071.13l26.56-281.11h303.24v80.42H5178.85l-11.07,119.53h49.43C5369.94,974.79,5431.18,1041.19,5431.18,1132.68Z"/></g></svg>